<svg width="19" height="19" viewBox="0 0 19 19" fill="none" xmlns="http://www.w3.org/2000/svg">
<g clip-path="url(#clip0_28_101)">
<path fill-rule="evenodd" clip-rule="evenodd" d="M10.0598 12.4347C9.91132 12.5831 9.70999 12.6665 9.50007 12.6665C9.29015 12.6665 9.08882 12.5831 8.94036 12.4347L4.4619 7.95626C4.38629 7.88323 4.32598 7.79587 4.28449 7.69929C4.243 7.6027 4.22116 7.49882 4.22024 7.3937C4.21933 7.28858 4.23936 7.18434 4.27917 7.08704C4.31897 6.98975 4.37776 6.90136 4.45209 6.82703C4.52642 6.7527 4.61481 6.69391 4.7121 6.65411C4.8094 6.6143 4.91364 6.59427 5.01876 6.59518C5.12388 6.5961 5.22776 6.61794 5.32435 6.65943C5.42093 6.70092 5.50829 6.76123 5.58132 6.83684L9.50007 10.7556L13.4188 6.83684C13.5681 6.69263 13.7681 6.61284 13.9757 6.61464C14.1832 6.61644 14.3818 6.6997 14.5286 6.84648C14.6754 6.99327 14.7586 7.19183 14.7604 7.3994C14.7622 7.60697 14.6824 7.80695 14.5382 7.95626L10.0598 12.4347Z" fill="black"/>
</g>
<defs>
<clipPath id="clip0_28_101">
<rect width="19" height="19" fill="white"/>
</clipPath>
</defs>
</svg>
